<?xml version="1.0" encoding="UTF-8"?>
<svg id="Layer_1" data-name="Layer 1" xmlns="http://www.w3.org/2000/svg" viewBox="0 0 375.36 62.09">
  <g>
    <path d="M30.52,15.26c8.43,0,15.26,6.83,15.26,15.26h15.26C61.03,13.66,47.37,0,30.52,0S0,13.66,0,30.52h15.26c0-8.43,6.83-15.26,15.26-15.26Z"/>
    <path d="M15.26,30.52C15.26,38.94,8.43,45.78,0,45.78v15.26c16.85,0,30.52-13.66,30.52-30.52h-15.26Z"/>
    <path d="M61.03,45.78c-8.43,0-15.26-6.83-15.26-15.26h-15.26c0,16.85,13.66,30.52,30.52,30.52v-15.26Z"/>
  </g>
  <g>
    <path d="M90.11,0h10.97l-.17,36.14,19.6-22.47h12.45l-16.28,18.46,17.24,28.82h-12.71l-11.84-20.46-8.45,9.58.17,10.88h-10.97V0Z"/>
    <path d="M135.67,0h11.15v60.96h-11.15V0Z"/>
    <path d="M150.66,48.94c0-9.32,9.75-12.45,19.77-15.5,7.4-2.26,10.97-4.01,10.97-7.49s-2.96-5.49-8.36-5.49c-6.09,0-10.1,3.49-11.15,9.32h-10.27c1.39-10.19,9.75-17.16,21.68-17.16s19.07,5.66,19.07,16.2v32.13h-10.97v-5.31c-3.57,3.92-8.88,6.09-14.89,6.09-9.75,0-15.85-5.05-15.85-12.8ZM169.38,54.25c4.53,0,9.23-1.83,12.02-4.96v-13.06c-2,1.66-5.14,2.7-8.71,3.92-6.36,2.09-11.15,3.74-11.15,8.44,0,3.66,3.05,5.66,7.84,5.66Z"/>
    <path d="M191.79,13.67h11.76l6.27,18.2,6.18,18.11,6.27-18.11,6.36-18.2h11.24l-17.77,47.28h-12.54l-17.77-47.28Z"/>
    <path d="M238.31,37.36c0-15.33,9.4-24.91,22.9-24.91,12.8,0,22.38,9.05,22.38,25.08v.87h-34.31c.35,10.19,4.88,15.68,11.93,15.68,5.75,0,9.75-3.66,11.32-10.8h10.54c-2.09,11.84-10.1,18.81-21.95,18.81-13.59,0-22.81-9.32-22.81-24.73ZM249.72,31.79h22.73c-1.48-7.4-5.57-11.32-11.32-11.32s-10.02,4.01-11.41,11.32Z"/>
    <path d="M325.08,0h13.84l22.56,60.96h-12.71l-4.88-14.02h-24.55l-4.88,14.02h-11.93L325.08,0ZM322.29,38.23h18.63l-.78-2.26-8.53-25.17-8.53,25.17-.78,2.26Z"/>
    <path d="M363.77,0h11.58v60.96h-11.58V0Z"/>
  </g>
</svg>